<svg width="73" height="70" viewBox="0 0 73 70" fill="none" xmlns="http://www.w3.org/2000/svg">
<path d="M7.99996 30.708C3.866 30.708 0.5 34.074 0.5 38.208V62.2081C0.5 66.342 3.866 69.708 7.99996 69.708H17C18.689 69.708 20.2429 69.1381 21.5 68.19V30.708H7.99996Z" fill="#55048E"/>
<path d="M72.5 41.958C72.5 40.1551 71.7861 38.475 70.547 37.236C71.9481 35.703 72.662 33.6479 72.467 31.509C72.116 27.6959 68.6809 24.7079 64.643 24.7079H46.112C47.03 21.9209 48.4999 16.812 48.4999 12.708C48.4999 6.20097 42.971 0.708008 39.4999 0.708008C36.383 0.708008 34.1569 2.46301 34.061 2.53501C33.707 2.82006 33.5 3.25206 33.5 3.70797V13.8809L24.86 32.598L24.5 32.781V64.9351C26.942 66.0871 30.0319 66.7081 32 66.7081H59.5371C62.8041 66.7081 65.6631 64.506 66.335 61.4671C66.68 59.904 66.479 58.329 65.7921 56.961C68.009 55.845 69.5001 53.562 69.5001 50.958C69.5001 49.896 69.2571 48.879 68.7951 47.9581C71.0121 46.8421 72.5 44.559 72.5 41.958Z" fill="#55048E"/>
</svg>
